<svg width="24" height="24" viewBox="0 0 24 24" fill="none" xmlns="http://www.w3.org/2000/svg">
<path d="M12 18.75C13.335 18.75 14.6401 18.3541 15.7501 17.6124C16.8601 16.8707 17.7253 15.8165 18.2362 14.5831C18.7471 13.3497 18.8808 11.9925 18.6203 10.6831C18.3599 9.37377 17.717 8.17104 16.773 7.22703C15.829 6.28303 14.6262 5.64015 13.3169 5.3797C12.0075 5.11925 10.6503 5.25292 9.41689 5.76382C8.18349 6.27471 7.12928 7.13987 6.38758 8.2499C5.64588 9.35993 5.25 10.665 5.25 12C5.2527 13.7894 5.96472 15.5047 7.23001 16.77C8.4953 18.0353 10.2106 18.7473 12 18.75ZM11.25 9.75C11.25 9.55109 11.329 9.36032 11.4697 9.21967C11.6103 9.07902 11.8011 9 12 9C12.1989 9 12.3897 9.07902 12.5303 9.21967C12.671 9.36032 12.75 9.55109 12.75 9.75V11.685L14.1225 13.0575C14.2628 13.1989 14.3413 13.3902 14.3409 13.5894C14.3405 13.7886 14.2612 13.9795 14.1203 14.1203C13.9795 14.2612 13.7886 14.3405 13.5894 14.3409C13.3902 14.3413 13.1989 14.2628 13.0575 14.1225L11.4675 12.5325C11.3299 12.3891 11.2521 12.1987 11.25 12V9.75Z" fill="#EE4D2C"/>
<path d="M12.0001 1.50002C11.8012 1.50002 11.6104 1.57903 11.4698 1.71969C11.3291 1.86034 11.2501 2.0511 11.2501 2.25002C11.2501 2.44893 11.3291 2.63969 11.4698 2.78035C11.6104 2.921 11.8012 3.00002 12.0001 3.00002C14.0997 2.99134 16.1368 3.71395 17.7615 5.04377C19.3863 6.37359 20.4974 8.22762 20.9039 10.2875C21.3105 12.3473 20.9871 14.4845 19.9894 16.3319C18.9918 18.1793 17.382 19.6217 15.4365 20.4114C13.4911 21.201 11.3314 21.2887 9.32838 20.6593C7.32534 20.03 5.60392 18.7228 4.45976 16.9624C3.3156 15.2019 2.82008 13.098 3.05831 11.012C3.29654 8.92597 4.25365 6.98797 5.76527 5.53082L5.71442 5.91872C5.68856 6.11598 5.74212 6.31543 5.86332 6.4732C5.98452 6.63097 6.16343 6.73413 6.36069 6.75999C6.55795 6.78585 6.75741 6.73229 6.91518 6.61109C7.07295 6.48989 7.17611 6.31098 7.20197 6.11372L7.49387 3.88277C7.51172 3.68694 7.45505 3.49158 7.33516 3.33571C7.21527 3.17984 7.041 3.07493 6.84714 3.04194L4.61619 2.75027C4.51718 2.73452 4.41602 2.73878 4.31869 2.7628C4.22136 2.78683 4.12983 2.83012 4.04952 2.89012C3.9692 2.95012 3.90173 3.02561 3.8511 3.11214C3.80046 3.19866 3.76768 3.29446 3.7547 3.39387C3.74173 3.49328 3.74881 3.59428 3.77554 3.6909C3.80226 3.78753 3.84809 3.87781 3.91031 3.95642C3.97253 4.03503 4.04988 4.10037 4.13778 4.14857C4.22568 4.19678 4.32236 4.22687 4.42209 4.23707L4.88912 4.29827C3.09866 5.95969 1.94466 8.19425 1.62646 10.616C1.30825 13.0377 1.84582 15.4946 3.1463 17.5621C4.44679 19.6297 6.42852 21.1781 8.74921 21.94C11.0699 22.7019 13.5838 22.6294 15.8567 21.7349C18.1296 20.8405 20.0188 19.1804 21.1979 17.0413C22.377 14.9022 22.772 12.4185 22.3147 10.0191C21.8574 7.61975 20.5765 5.45543 18.6933 3.9C16.81 2.34457 14.4426 1.4957 12.0001 1.50002Z" fill="#EE4D2C"/>
</svg>
