<svg width="20" height="20" viewBox="0 0 20 20" fill="none" xmlns="http://www.w3.org/2000/svg">
<path d="M4.72656 6.48438C2.78793 6.48438 1.21094 8.06137 1.21094 10C1.21094 11.9386 2.78793 13.5156 4.72656 13.5156C6.6652 13.5156 8.24219 11.9386 8.24219 10C8.24219 8.06137 6.6652 6.48438 4.72656 6.48438Z" fill="#FF9F00"/>
<path d="M15.273 0C13.3343 0 11.7573 1.61605 11.7573 3.55469C11.7573 4.01625 11.8522 4.45477 12.0145 4.85895L8.36914 7.08691C8.61371 7.39203 8.82895 7.71961 8.99187 8.08004L12.6347 5.85359C13.2797 6.59281 14.2171 7.07031 15.273 7.07031C17.2116 7.07031 18.7886 5.49332 18.7886 3.55469C18.7886 1.61605 17.2116 0 15.273 0Z" fill="#FF9F00"/>
<path d="M15.2729 12.9296C14.217 12.9296 13.2796 13.4071 12.6347 14.1464L8.99184 11.9199C8.82891 12.2804 8.61367 12.6079 8.36914 12.913L12.0144 15.141C11.852 15.5451 11.7573 15.9837 11.7573 16.4453C11.7573 18.3839 13.3343 20 15.2729 20C17.2115 20 18.7885 18.3839 18.7885 16.4453C18.7885 14.5066 17.2115 12.9296 15.2729 12.9296Z" fill="#FF9F00"/>
</svg>
