<svg width="20" height="20" viewBox="0 0 20 20" fill="none" xmlns="http://www.w3.org/2000/svg">
<path d="M10.0008 0.833008C8.3432 0.833008 6.75349 1.49149 5.58139 2.66359C4.40928 3.83569 3.7508 5.42541 3.7508 7.08301V11.958L2.36747 14.0413C2.20166 14.297 2.10762 14.5925 2.09517 14.897C2.08272 15.2014 2.15233 15.5036 2.29672 15.7719C2.44111 16.0403 2.65496 16.2649 2.9159 16.4222C3.17684 16.5796 3.47527 16.6639 3.77997 16.6663H16.2216C16.5283 16.6653 16.829 16.5814 17.0918 16.4234C17.3546 16.2654 17.5699 16.0393 17.7146 15.7689C17.8594 15.4986 17.9284 15.1941 17.9142 14.8878C17.9 14.5815 17.8032 14.2847 17.6341 14.0288L16.2508 11.958V7.08301C16.2508 5.42541 15.5923 3.83569 14.4202 2.66359C13.2481 1.49149 11.6584 0.833008 10.0008 0.833008Z" fill="#13E29D"/>
<path d="M10.0007 19.1667C10.5172 19.1661 11.0208 19.0055 11.4423 18.7071C11.8639 18.4086 12.1827 17.987 12.3548 17.5H7.64648C7.81865 17.987 8.13742 18.4086 8.55897 18.7071C8.98051 19.0055 9.48415 19.1661 10.0007 19.1667Z" fill="#13E29D"/>
</svg>
