<svg width="24" height="24" viewBox="0 0 24 24" fill="none" xmlns="http://www.w3.org/2000/svg">
<path d="M20.5618 18.6972C21.6388 17.4013 22.388 15.865 22.7458 14.2184C23.1035 12.5717 23.0595 10.8631 22.6173 9.23705C22.1751 7.61102 21.3477 6.11541 20.2052 4.87675C19.0628 3.63808 17.6388 2.69281 16.0537 2.12088C14.4686 1.54895 12.7691 1.3672 11.099 1.591C9.42881 1.8148 7.83711 2.43757 6.45854 3.40662C5.07996 4.37567 3.95506 5.6625 3.17899 7.15824C2.40293 8.65399 1.99853 10.3146 2 11.9997C2.00057 14.4494 2.86381 16.8206 4.43825 18.6972L4.42325 18.71C4.47575 18.773 4.53575 18.827 4.58975 18.8892C4.65725 18.9665 4.73 19.0392 4.79975 19.1142C5.00975 19.3422 5.22575 19.5612 5.45225 19.7667C5.52125 19.8297 5.5925 19.8882 5.66225 19.9482C5.90225 20.1552 6.149 20.3517 6.40475 20.5347C6.43775 20.5572 6.46775 20.5865 6.50075 20.6097V20.6007C8.25733 21.8369 10.3528 22.5003 12.5008 22.5003C14.6487 22.5003 16.7442 21.8369 18.5008 20.6007V20.6097C18.5338 20.5865 18.563 20.5572 18.5968 20.5347C18.8518 20.351 19.0993 20.1552 19.3393 19.9482C19.409 19.8882 19.4803 19.829 19.5493 19.7667C19.7758 19.5605 19.9918 19.3422 20.2018 19.1142C20.2715 19.0392 20.3435 18.9665 20.4118 18.8892C20.465 18.827 20.5258 18.773 20.5783 18.7092L20.5618 18.6972ZM12.5 5.99974C13.1675 5.99974 13.82 6.19768 14.3751 6.56853C14.9301 6.93938 15.3627 7.46648 15.6181 8.08318C15.8735 8.69988 15.9404 9.37848 15.8102 10.0332C15.6799 10.6879 15.3585 11.2892 14.8865 11.7612C14.4145 12.2332 13.8131 12.5547 13.1584 12.6849C12.5037 12.8151 11.8251 12.7483 11.2084 12.4928C10.5917 12.2374 10.0646 11.8048 9.69379 11.2498C9.32294 10.6948 9.125 10.0423 9.125 9.37474C9.125 8.47963 9.48058 7.62119 10.1135 6.98825C10.7465 6.35532 11.6049 5.99974 12.5 5.99974ZM6.50525 18.6972C6.51826 17.7125 6.91846 16.7724 7.61927 16.0804C8.32008 15.3885 9.26514 15.0002 10.25 14.9997H14.75C15.7349 15.0002 16.6799 15.3885 17.3807 16.0804C18.0815 16.7724 18.4817 17.7125 18.4948 18.6972C16.8499 20.1795 14.7142 20.9998 12.5 20.9998C10.2858 20.9998 8.15012 20.1795 6.50525 18.6972Z" fill="#0037A0"/>
</svg>
