<svg width="32" height="32" viewBox="0 0 32 32" fill="none" xmlns="http://www.w3.org/2000/svg">
<g clip-path="url(#clip0_2160_30948)">
<path d="M11.0895 11.2714C11.3102 11.4921 11.3102 11.8499 11.0895 12.0706C10.8688 12.2913 10.511 12.2913 10.2903 12.0706C10.0696 11.8499 10.0696 11.4921 10.2903 11.2714C10.511 11.0507 10.8688 11.0507 11.0895 11.2714Z" stroke="white"/>
<path d="M16.3249 11.6716C16.3249 11.9838 16.0718 12.2369 15.7596 12.2369C15.4474 12.2369 15.1943 11.9838 15.1943 11.6716C15.1943 11.3594 15.4474 11.1063 15.7596 11.1063C16.0718 11.1063 16.3249 11.3594 16.3249 11.6716Z" stroke="white"/>
<path d="M18.2156 16.7937C18.2156 16.9722 18.071 17.1169 17.8925 17.1169C17.714 17.1169 17.5693 16.9722 17.5693 16.7937C17.5693 16.6153 17.714 16.4706 17.8925 16.4706C18.071 16.4706 18.2156 16.6153 18.2156 16.7937Z" stroke="white"/>
<path d="M7.38867 3.11222C9.93763 1.40906 12.9344 0.5 16 0.5C20.1109 0.5 24.0534 2.13303 26.9602 5.03984C29.867 7.94666 31.5 11.8891 31.5 16C31.5 19.0656 30.591 22.0624 28.8878 24.6113C27.1846 27.1603 24.7639 29.147 21.9316 30.3201C19.0993 31.4933 15.9828 31.8002 12.9761 31.2022C9.96941 30.6041 7.20757 29.1279 5.03985 26.9602C2.87214 24.7924 1.39591 22.0306 0.797835 19.0239C0.199764 16.0172 0.506716 12.9007 1.67987 10.0684C2.85303 7.23615 4.83971 4.81538 7.38867 3.11222ZM13.6467 20.6514L13.7347 20.6487C13.8122 20.8081 13.899 20.9674 13.9954 21.1262C15.4065 23.4646 18.56 24.8861 22.2217 23.8963C22.4877 24.0113 22.7502 24.1533 23.0275 24.3097C23.0856 24.3424 23.1446 24.376 23.2045 24.4101C23.4755 24.5643 23.7643 24.7287 24.061 24.8715L25.0818 25.3632L24.7569 24.2777C24.6124 23.7948 24.4647 23.3112 24.3 22.8271C26.0407 21.4574 26.761 19.6669 26.5748 17.9421C26.3795 16.1344 25.197 14.4828 23.3362 13.5375C22.5814 13.1536 21.8125 12.9125 21.0529 12.7945L21.0459 12.7597C20.7574 11.3357 19.9648 10.0861 18.9085 9.14842H19.2678L17.6076 8.21283C14.6192 6.5288 11.2647 6.86386 8.83814 8.31282C6.41877 9.75748 4.84 12.3743 5.58804 15.2644C5.95203 16.8354 6.9755 18.1469 8.21414 19.0634C8.00557 19.667 7.80692 20.27 7.61572 20.8772L7.25184 22.0329L8.32486 21.4702C8.82762 21.2065 9.33517 20.9328 9.84001 20.6606C10.0958 20.5226 10.3508 20.3851 10.6042 20.2494C11.5896 20.5467 12.617 20.6826 13.6467 20.6514Z" stroke="white"/>
<path d="M22.2557 16.7937C22.2557 16.9722 22.111 17.1169 21.9325 17.1169C21.7541 17.1169 21.6094 16.9722 21.6094 16.7937C21.6094 16.6153 21.7541 16.4706 21.9325 16.4706C22.111 16.4706 22.2557 16.6153 22.2557 16.7937Z" stroke="white"/>
</g>
<defs>
<clipPath id="clip0_2160_30948">
<rect width="32" height="32" fill="white"/>
</clipPath>
</defs>
</svg>
