<svg width="20" height="20" viewBox="0 0 20 20" fill="none" xmlns="http://www.w3.org/2000/svg">
<g clip-path="url(#clip0_2175_20218)">
<path d="M19.8767 10.1238C19.8767 11.7469 19.4852 13.2786 18.7915 14.6295C17.1537 17.8186 13.8316 19.2399 9.99999 19.2399C4.54522 19.2399 0.580078 15.4959 0.580078 10.0411C0.580078 5.13894 3.69459 1.15364 8.37739 0.379696C8.9053 0.292456 9.44733 0.24707 9.99995 0.24707C15.4548 0.247031 19.8767 4.66901 19.8767 10.1238Z" fill="#2D56A1"/>
<path d="M18.262 14.1338C18.2557 14.1376 18.2494 14.1414 18.2431 14.1452C17.9521 14.3195 17.597 14.0485 17.6869 13.7214L18.9675 9.06116C18.9925 8.97031 18.9391 8.8764 18.8482 8.85141C18.7702 8.83 18.718 8.75676 18.7232 8.67603L18.8138 7.25242C18.9453 6.77374 18.6639 6.27909 18.1853 6.14756L12.5077 4.58744C12.5056 4.58685 12.5035 4.58627 12.5013 4.58572C12.0722 4.46984 11.7154 4.17266 11.5433 3.76282L10.6573 1.65145C10.6208 1.5646 10.5208 1.52373 10.434 1.56017C10.3594 1.59147 10.2731 1.56609 10.2274 1.49948L9.92772 1.05509C9.5859 0.548121 8.98063 0.280282 8.37737 0.379996C6.68635 0.659603 5.1405 1.3689 3.85513 2.39162C3.85524 2.3913 3.85532 2.39099 3.85544 2.39067C3.22346 2.89348 2.6147 3.50793 2.09224 4.20475L2.09275 4.20592C0.860096 5.85011 0.127579 7.89075 0.123068 10.1028C0.112006 15.5328 4.52794 19.9774 9.95788 20C12.4567 20.0104 14.7406 19.0925 16.4853 17.5718L16.4857 17.5718C16.5412 17.5235 16.6474 17.4277 16.6756 17.4018L16.6757 17.4012C17.5343 16.6131 18.2531 15.6751 18.7906 14.6287C18.9632 14.2926 18.5857 13.9389 18.262 14.1338ZM7.25164 12.691L8.34175 12.2335L8.52054 12.6596L8.79235 12.5455C8.4881 13.7293 8.3656 13.9079 8.38862 14.3075C7.94678 14.0622 7.52576 13.7841 7.12886 13.4763C6.85094 13.2609 6.91704 12.8288 7.24223 12.695C7.24537 12.6937 7.2485 12.6924 7.25164 12.691Z" fill="#1A396B"/>
<path d="M10.8311 7.43457L17.9784 9.39936L15.5842 18.1088L8.43686 16.144L10.8311 7.43457Z" fill="#20B7A1"/>
<path d="M8.44018 16.1485C7.65526 15.9328 7.1938 15.1217 7.40951 14.3368L9.6666 6.1228C9.88231 5.33788 10.6934 4.87642 11.4784 5.09212L8.44018 16.1485Z" fill="#2896FF"/>
<path d="M15.5093 17.4298L8.53349 15.5015C8.05869 15.371 7.77955 14.8804 7.91002 14.4056C8.04049 13.9308 8.53113 13.6517 9.00593 13.7821L9.08407 13.8036L17.7841 7.75684L17.6694 9.55687L15.9818 15.7104L15.5093 17.4298Z" fill="white"/>
<path d="M12.7891 5.45215L18.0185 6.88969L15.8822 14.6608L10.6528 13.2232L12.7891 5.45215Z" fill="#82CD64"/>
<path d="M15.9908 14.2823L12.1125 13.2166C11.6565 13.0913 11.3884 12.6201 11.5137 12.164L13.3181 5.59747L11.4779 5.0918L9.08398 13.8036L15.6282 15.6019L15.9908 14.2823Z" fill="#20B7A1"/>
<path d="M15.6288 15.6019L15.5098 17.4298L17.6699 9.55687L17.7846 7.75684L15.6288 15.6019Z" fill="#FAF58C"/>
<path d="M2.72656 4.86719L9.56067 1.99864L13.0561 10.3264L6.22204 13.1949L2.72656 4.86719Z" fill="#E20A62"/>
<path d="M6.22238 13.196C5.47198 13.5109 4.60841 13.1579 4.29349 12.4075L0.997989 4.55487C0.683078 3.80446 1.03612 2.94089 1.78648 2.62598L6.22238 13.196Z" fill="#FF8500"/>
<path d="M12.5726 9.83997L5.89662 12.6298C5.44273 12.8202 4.92031 12.6067 4.72982 12.1528C4.53934 11.6989 4.75289 11.1765 5.20678 10.986L5.28151 10.9547L8.39041 0.829102L9.4114 2.31536L11.8828 8.19621L12.5726 9.83997Z" fill="white"/>
<path d="M3.21387 2.02637L8.04186 -0.000135247L11.1649 7.44038L6.33694 9.46688L3.21387 2.02637Z" fill="#FF5551"/>
<path d="M12.2693 9.35983L6.73391 11.6828C6.65236 11.7171 6.55845 11.6787 6.52424 11.5971C6.49 11.5156 6.5284 11.4217 6.60995 11.3875L12.1453 9.06445L12.2693 9.35983Z" fill="#6EE1FF"/>
<path d="M6.72461 11.3379L7.9094 10.8406L8.67544 12.6656L7.49064 13.1629L6.72461 11.3379Z" fill="#2896FF"/>
<path d="M11.0083 7.06749L7.30061 8.62349C6.86464 8.80645 6.36293 8.60137 6.17998 8.1654L5.09831 5.5879C5.07124 5.52345 5.09615 5.44892 5.15648 5.41366L5.16021 5.41146C5.20728 5.38396 5.23348 5.33109 5.22689 5.27699L5.22183 5.23529C5.21434 5.17355 5.2491 5.11444 5.30668 5.09102L5.45025 5.03261C5.51599 5.00586 5.59154 5.02645 5.63461 5.0829L5.70342 5.17308C5.72774 5.20403 5.76661 5.20384 5.80835 5.18681C5.88017 5.15759 5.95706 5.07372 5.93191 5.0119C5.92987 5.00688 5.92544 5.00088 5.92109 4.99487L5.19394 4.10286C5.15177 4.05183 5.06497 4.05402 4.98812 4.08529C4.91132 4.11655 4.84769 4.17559 4.8531 4.24157C4.86872 4.41346 4.6303 4.47277 4.56349 4.31363L3.54541 1.8877L1.78613 2.62602L5.28134 10.9546L11.5377 8.32898L11.0083 7.06749ZM5.38651 4.82479L5.21924 4.89285C5.19994 4.90069 5.17845 4.88806 5.17594 4.86735L5.13463 4.52623C5.13075 4.49426 5.17158 4.47763 5.19112 4.50325L5.39973 4.7763C5.41236 4.7929 5.40581 4.81694 5.38651 4.82479Z" fill="#E20A62"/>
<path d="M6.04045 5.00068C6.05743 5.04246 6.11584 5.06148 6.18606 5.03292L6.55691 4.88202C6.74574 4.80517 6.85405 4.65011 6.74661 4.38612L6.73233 4.35101C6.66435 4.18394 6.56899 4.15068 6.45147 4.15374C6.52431 4.07929 6.54177 3.96906 6.48669 3.83369C6.39015 3.59645 6.19861 3.60429 6.03154 3.67227L5.68906 3.81164C5.63222 3.83479 5.58628 3.88464 5.60805 3.93811L6.04045 5.00068ZM6.46625 4.44378L6.47712 4.47049C6.52062 4.57743 6.48952 4.64454 6.406 4.67855L6.23894 4.74653L6.10298 4.4124L6.27004 4.34442C6.35356 4.31045 6.42001 4.33018 6.46625 4.44378ZM6.10231 3.9083C6.16578 3.88249 6.22132 3.92803 6.24513 3.98655C6.26824 4.04335 6.26024 4.11471 6.19681 4.14052L6.02138 4.21191L5.92689 3.97969L6.10231 3.9083Z" fill="#E20A62"/>
<path d="M6.85948 4.31134C6.97641 4.59868 7.202 4.63151 7.42089 4.54243C7.65978 4.44522 7.7886 4.24485 7.69814 4.02263C7.65735 3.92237 7.60604 3.91598 7.51586 3.95269C7.44897 3.97992 7.399 4.01973 7.41912 4.08363C7.44066 4.15083 7.47377 4.25611 7.34012 4.31052C7.24319 4.34998 7.16635 4.31891 7.1201 4.20531L6.93993 3.76256C6.89368 3.64888 6.92703 3.57302 7.02223 3.53426C7.16427 3.47648 7.21279 3.58133 7.23213 3.62413C7.25994 3.68289 7.32427 3.67815 7.39441 3.64959C7.48298 3.61354 7.51523 3.57321 7.47443 3.47295C7.38806 3.26074 7.15866 3.2139 6.91977 3.3111C6.70088 3.40019 6.5623 3.58118 6.67927 3.86859L6.85948 4.31134Z" fill="#E20A62"/>
<path d="M4.84379 5.1096C4.84175 5.10458 4.84073 5.0972 4.83963 5.08987L4.73568 3.94425C4.73023 3.87827 4.79389 3.81924 4.8707 3.78797C4.94754 3.75671 5.03435 3.75451 5.07652 3.80555L5.80366 4.69756C5.80801 4.70356 5.8124 4.70952 5.81444 4.71458C5.83959 4.77641 5.76274 4.86027 5.69088 4.8895C5.64911 4.90648 5.61027 4.90668 5.58595 4.87577L5.44415 4.68999L5.09162 4.83344L5.11982 5.06543C5.1241 5.10454 5.09613 5.13152 5.05431 5.14855C4.98249 5.17777 4.86893 5.17142 4.84379 5.1096ZM5.30744 4.51194L5.00328 4.11379L5.06353 4.61118L5.30744 4.51194Z" fill="#F8E000"/>
<path d="M5.49087 3.64026C5.46909 3.58679 5.51503 3.53694 5.57191 3.51379L5.9144 3.37442C6.08146 3.30644 6.27297 3.29859 6.36954 3.53584C6.42462 3.67121 6.40716 3.78144 6.33432 3.85589C6.45184 3.85287 6.5472 3.88613 6.61518 4.05316L6.62946 4.08827C6.7369 4.35226 6.6286 4.50732 6.43976 4.58417L6.06891 4.73507C5.99869 4.76363 5.94029 4.74461 5.9233 4.70283L5.49087 3.64026ZM5.9042 3.91406L6.07962 3.84267C6.14309 3.81686 6.15105 3.7455 6.12795 3.6887C6.10413 3.63022 6.04859 3.58464 5.98512 3.61045L5.8097 3.68184L5.9042 3.91406ZM6.28885 4.3807C6.37237 4.34669 6.40351 4.27957 6.35997 4.17264L6.34911 4.14593C6.3029 4.03233 6.23641 4.0126 6.15289 4.04661L5.98583 4.11459L6.12179 4.44872L6.28885 4.3807Z" fill="#F8E000"/>
<path d="M6.90499 3.23638C6.80974 3.27514 6.7764 3.351 6.82269 3.46468L7.00286 3.90743C7.04907 4.02103 7.12595 4.05206 7.22288 4.01264C7.35653 3.95823 7.32346 3.85294 7.30188 3.78575C7.28176 3.72189 7.33173 3.68203 7.39862 3.65481C7.4888 3.61809 7.54011 3.62453 7.5809 3.72479C7.67132 3.94701 7.54254 4.14738 7.30365 4.24458C7.08476 4.33367 6.85917 4.30083 6.74223 4.0135L6.56207 3.57075C6.44513 3.28337 6.58368 3.10234 6.80257 3.01326C7.04146 2.91606 7.27085 2.96285 7.35719 3.17511C7.39799 3.27537 7.36571 3.3157 7.27717 3.35175C7.20703 3.3803 7.1427 3.38505 7.11489 3.32629C7.09555 3.28345 7.04699 3.17856 6.90499 3.23638Z" fill="#F8E000"/>
<path d="M11.5381 8.32907L12.5729 9.83996L9.41166 2.31536L8.39062 0.829102L11.5381 8.32907Z" fill="#6EE1FF"/>
</g>
<defs>
<clipPath id="clip0_2175_20218">
<rect width="20" height="20" fill="white"/>
</clipPath>
</defs>
</svg>
