<svg width="58" height="58" viewBox="0 0 58 58" fill="none" xmlns="http://www.w3.org/2000/svg">
<path d="M14.5 0C12.5062 0 10.875 1.63125 10.875 3.625V54.375C10.875 56.3688 12.5062 58 14.5 58H50.75C52.7438 58 54.375 56.3688 54.375 54.375V14.5L39.875 0H14.5Z" fill="#E2E5E7"/>
<path d="M43.5 14.5H54.375L39.875 0V10.875C39.875 12.8687 41.5062 14.5 43.5 14.5Z" fill="#B0B7BD"/>
<path d="M54.375 25.375L43.5 14.5H54.375V25.375Z" fill="#CAD1D8"/>
<path d="M47.125 47.125C47.125 48.1219 46.3094 48.9375 45.3125 48.9375H5.4375C4.44062 48.9375 3.625 48.1219 3.625 47.125V29C3.625 28.0031 4.44062 27.1875 5.4375 27.1875H45.3125C46.3094 27.1875 47.125 28.0031 47.125 29V47.125Z" fill="#F15642"/>
<path d="M11.5273 34.3413C11.5273 33.8628 11.9043 33.3408 12.5115 33.3408H15.8592C17.7442 33.3408 19.4407 34.6023 19.4407 37.0202C19.4407 39.3112 17.7442 40.5872 15.8592 40.5872H13.4395V42.5012C13.4395 43.1392 13.0335 43.4999 12.5115 43.4999C12.033 43.4999 11.5273 43.1392 11.5273 42.5012V34.3413ZM13.4395 35.166V38.7765H15.8592C16.8307 38.7765 17.5992 37.9192 17.5992 37.0202C17.5992 36.007 16.8307 35.166 15.8592 35.166H13.4395Z" fill="white"/>
<path d="M22.2778 43.5C21.7993 43.5 21.2773 43.239 21.2773 42.6028V34.3704C21.2773 33.8502 21.7993 33.4714 22.2778 33.4714H25.5965C32.2194 33.4714 32.0744 43.5 25.727 43.5H22.2778ZM23.1913 35.2404V41.7328H25.5965C29.5097 41.7328 29.6837 35.2404 25.5965 35.2404H23.1913Z" fill="white"/>
<path d="M34.4232 35.3563V37.66H38.1189C38.6409 37.66 39.1629 38.182 39.1629 38.6877C39.1629 39.1662 38.6409 39.5577 38.1189 39.5577H34.4232V42.6009C34.4232 43.1084 34.0625 43.498 33.555 43.498C32.917 43.498 32.5273 43.1084 32.5273 42.6009V34.3685C32.5273 33.8483 32.9188 33.4695 33.555 33.4695H38.6427C39.2807 33.4695 39.6577 33.8483 39.6577 34.3685C39.6577 34.8325 39.2807 35.3545 38.6427 35.3545H34.4232V35.3563Z" fill="white"/>
<path d="M45.3125 48.9375H10.875V50.75H45.3125C46.3094 50.75 47.125 49.9344 47.125 48.9375V47.125C47.125 48.1219 46.3094 48.9375 45.3125 48.9375Z" fill="#CAD1D8"/>
</svg>
