<svg width="26" height="26" viewBox="0 0 26 26" fill="none" xmlns="http://www.w3.org/2000/svg">
<path d="M7.75419 24.6774H23.8029C24.172 24.6774 24.4985 24.4785 24.7294 24.1716C24.9603 23.8648 25.1 23.4454 25.1 22.9865C25.1 22.5275 24.9601 22.1081 24.7292 21.8013C24.4982 21.4945 24.1716 21.2955 23.8025 21.2955H7.75419C7.38509 21.2955 7.05846 21.4945 6.82748 21.8013C6.59653 22.1081 6.45664 22.5275 6.45664 22.9865C6.45664 23.4455 6.59653 23.8648 6.82748 24.1716C7.05846 24.4785 7.38509 24.6774 7.75419 24.6774Z" fill="#FF9F00" stroke="#FF9F00" stroke-width="0.2"/>
<path d="M23.8029 14.6911H7.75419C7.38509 14.6911 7.05846 14.4921 6.82748 14.1853C6.59653 13.8785 6.45664 13.4591 6.45664 13.0001C6.45664 12.5411 6.59653 12.1218 6.82748 11.815C7.05846 11.5081 7.38509 11.3092 7.75419 11.3092H23.8025C24.1716 11.3092 24.4982 11.5081 24.7292 11.815C24.9601 12.1218 25.1 12.5411 25.1 13.0001L23.8029 14.6911ZM23.8029 14.6911C24.172 14.6911 24.4986 14.4921 24.7296 14.1853M23.8029 14.6911L24.7296 14.1853M24.7296 14.1853C24.9604 13.8785 25.1002 13.4591 25.1 13.0001L24.7296 14.1853Z" fill="#FF9F00" stroke="#FF9F00" stroke-width="0.2"/>
<path d="M7.75419 4.70451H23.8029C24.172 4.70451 24.4985 4.50556 24.7294 4.19869C24.9603 3.89187 25.1 3.47254 25.1 3.01356C25.1 2.55457 24.9601 2.13523 24.7292 1.82842C24.4982 1.52156 24.1716 1.32261 23.8025 1.32261H7.75419C7.38509 1.32261 7.05846 1.52156 6.82748 1.82842C6.59653 2.13523 6.45664 2.55457 6.45664 3.01356C6.45664 3.47256 6.59653 3.89189 6.82748 4.1987C7.05846 4.50556 7.38509 4.70451 7.75419 4.70451Z" fill="#FF9F00" stroke="#FF9F00" stroke-width="0.2"/>
<path d="M2.6083 5.3733C3.0908 5.3733 3.52012 5.11325 3.82544 4.70763C4.13072 4.30206 4.31661 3.7463 4.31661 3.13665C4.31661 2.527 4.13072 1.97125 3.82544 1.56567C3.52012 1.16005 3.0908 0.9 2.6083 0.9C2.12581 0.9 1.69648 1.16005 1.39117 1.56567C1.08588 1.97125 0.9 2.527 0.9 3.13665C0.9 3.7463 1.08588 4.30206 1.39117 4.70763C1.69648 5.11325 2.12581 5.3733 2.6083 5.3733Z" fill="#FF9F00" stroke="#FF9F00" stroke-width="0.2"/>
<path d="M2.6083 15.2366C3.0908 15.2366 3.52012 14.9765 3.82544 14.5709C4.13072 14.1653 4.31661 13.6096 4.31661 12.9999C4.31661 12.3903 4.13072 11.8345 3.82544 11.429C3.52012 11.0233 3.0908 10.7633 2.6083 10.7633C2.12581 10.7633 1.69648 11.0233 1.39117 11.429C1.08588 11.8345 0.9 12.3903 0.9 12.9999C0.9 13.6096 1.08588 14.1653 1.39117 14.5709C1.69648 14.9765 2.12581 15.2366 2.6083 15.2366Z" fill="#FF9F00" stroke="#FF9F00" stroke-width="0.2"/>
<path d="M2.6083 25.1001C3.0908 25.1001 3.52012 24.8401 3.82544 24.4344C4.13072 24.0289 4.31661 23.4731 4.31661 22.8635C4.31661 22.2538 4.13072 21.6981 3.82544 21.2925C3.52012 20.8869 3.0908 20.6268 2.6083 20.6268C2.12581 20.6268 1.69648 20.8869 1.39117 21.2925C1.08588 21.6981 0.9 22.2538 0.9 22.8635C0.9 23.4731 1.08588 24.0289 1.39117 24.4344C1.69648 24.8401 2.12581 25.1001 2.6083 25.1001Z" fill="#FF9F00" stroke="#FF9F00" stroke-width="0.2"/>
</svg>
