<svg width="31" height="30" viewBox="0 0 31 30" fill="none" xmlns="http://www.w3.org/2000/svg">
<g clip-path="url(#clip0_2166_16306)">
<path d="M6.24467 23.949H26.8299C26.8929 23.949 26.954 23.9401 27.0127 23.9262C27.0173 23.9262 27.0212 23.927 27.0259 23.927C27.4653 23.927 27.8223 23.573 27.8223 23.1364V0.790628C27.8224 0.354199 27.4653 0 27.0259 0H26.8315H7.51845H6.24579C4.12591 0 2.40158 1.71215 2.40158 3.81598C2.40158 3.8442 2.40718 3.87098 2.40994 3.89821C2.40718 5.84164 2.3829 23.6993 2.40718 26.0469C2.40566 26.0928 2.4 26.1376 2.4 26.1839C2.4 28.2069 3.99564 29.863 6.00268 29.9882C6.04295 29.9943 6.08243 30.0001 6.12421 30.0001H27.0258C27.4653 30.0001 27.8223 29.6461 27.8223 29.2095V26.2335C27.8223 25.7972 27.4652 25.4428 27.0258 25.4428C26.5865 25.4428 26.2294 25.7972 26.2294 26.2335V28.4189H6.24467C5.03439 28.4189 4.04643 27.465 3.99788 26.2755C3.99906 26.2543 4.00294 26.2342 4.00255 26.2126C4.00176 26.1779 4.00057 26.1239 3.99978 26.052C4.06939 24.8813 5.04821 23.949 6.24467 23.949ZM6.78774 3.81598C6.78774 3.37955 7.14454 3.02535 7.58417 3.02535C8.02381 3.02535 8.38061 3.37955 8.38061 3.81598V19.8758C8.38061 20.312 8.02381 20.6664 7.58417 20.6664C7.14454 20.6664 6.78774 20.3119 6.78774 19.8758V3.81598Z" fill="#FF9F00"/>
</g>
<defs>
<clipPath id="clip0_2166_16306">
<rect width="30.2204" height="30" fill="white"/>
</clipPath>
</defs>
</svg>
