<svg width="42" height="42" viewBox="0 0 42 42" fill="none" xmlns="http://www.w3.org/2000/svg">
<rect width="42" height="42" rx="21" fill="#E7E7E7"/>
<path d="M21 21.625C20.2583 21.625 19.5333 21.4051 18.9166 20.993C18.2999 20.581 17.8193 19.9953 17.5355 19.3101C17.2516 18.6248 17.1774 17.8708 17.3221 17.1434C17.4668 16.416 17.8239 15.7478 18.3484 15.2234C18.8728 14.6989 19.541 14.3418 20.2684 14.1971C20.9958 14.0524 21.7498 14.1266 22.4351 14.4105C23.1203 14.6943 23.706 15.1749 24.118 15.7916C24.5301 16.4083 24.75 17.1333 24.75 17.875C24.75 18.8696 24.3549 19.8234 23.6517 20.5267C22.9484 21.2299 21.9946 21.625 21 21.625V21.625ZM21 15.375C20.5055 15.375 20.0222 15.5216 19.6111 15.7963C19.2 16.071 18.8795 16.4615 18.6903 16.9183C18.5011 17.3751 18.4516 17.8778 18.548 18.3627C18.6445 18.8477 18.8826 19.2931 19.2322 19.6428C19.5819 19.9924 20.0273 20.2305 20.5123 20.327C20.9972 20.4234 21.4999 20.3739 21.9567 20.1847C22.4135 19.9955 22.804 19.675 23.0787 19.2639C23.3534 18.8528 23.5 18.3695 23.5 17.875C23.5 17.212 23.2366 16.5761 22.7678 16.1072C22.2989 15.6384 21.663 15.375 21 15.375Z" fill="#FF9F00"/>
<path d="M21.0004 30.3752C19.6144 30.3743 18.2459 30.0661 16.9933 29.4727C15.7408 28.8794 14.6353 28.0158 13.7566 26.944L13.4316 26.544L13.7566 26.1502C14.6361 25.0798 15.7418 24.2176 16.9944 23.6256C18.2469 23.0336 19.615 22.7266 21.0004 22.7266C22.3858 22.7266 23.7539 23.0336 25.0064 23.6256C26.2589 24.2176 27.3647 25.0798 28.2441 26.1502L28.5691 26.544L28.2441 26.944C27.3654 28.0158 26.26 28.8794 25.0075 29.4727C23.7549 30.0661 22.3864 30.3743 21.0004 30.3752V30.3752ZM15.0691 26.5502C15.8293 27.364 16.7486 28.0128 17.77 28.4564C18.7914 28.9 19.8931 29.1289 21.0066 29.1289C22.1202 29.1289 23.2219 28.9 24.2433 28.4564C25.2647 28.0128 26.184 27.364 26.9441 26.5502C26.184 25.7364 25.2647 25.0876 24.2433 24.644C23.2219 24.2004 22.1202 23.9715 21.0066 23.9715C19.8931 23.9715 18.7914 24.2004 17.77 24.644C16.7486 25.0876 15.8293 25.7364 15.0691 26.5502V26.5502Z" fill="#FF9F00"/>
<path d="M21.0004 30.375C18.8709 30.3764 16.8043 29.6528 15.1408 28.3232C13.4774 26.9936 12.3161 25.1373 11.8482 23.0598C11.3803 20.9823 11.6337 18.8074 12.5666 16.8931C13.4995 14.9788 15.0563 13.4391 16.9808 12.5275C18.9054 11.6158 21.0829 11.3866 23.1551 11.8775C25.2273 12.3683 27.0707 13.5501 28.3817 15.2282C29.6928 16.9063 30.3935 18.9807 30.3685 21.1101C30.3435 23.2395 29.5943 25.2969 28.2441 26.9438C27.3654 28.0156 26.26 28.8792 25.0075 29.4725C23.7549 30.0659 22.3864 30.3741 21.0004 30.375V30.375ZM21.0004 12.875C19.3934 12.875 17.8225 13.3515 16.4864 14.2443C15.1502 15.1371 14.1088 16.4061 13.4939 17.8907C12.8789 19.3754 12.718 21.009 13.0315 22.5851C13.345 24.1612 14.1189 25.6089 15.2552 26.7452C16.3915 27.8816 17.8392 28.6554 19.4153 28.9689C20.9914 29.2824 22.6251 29.1215 24.1097 28.5065C25.5944 27.8916 26.8633 26.8502 27.7561 25.514C28.6489 24.1779 29.1254 22.607 29.1254 21C29.1254 18.8451 28.2694 16.7785 26.7456 15.2548C25.2219 13.731 23.1553 12.875 21.0004 12.875V12.875Z" fill="#FF9F00"/>
<path d="M14.2383 26.5501C14.2383 26.5501 20.532 33.5813 26.9383 27.2501L27.7633 26.5501C27.7633 26.5501 22.4133 21.0001 16.982 24.3313L14.2383 26.5501Z" fill="#FF9F00"/>
<path d="M21 21C22.7259 21 24.125 19.6009 24.125 17.875C24.125 16.1491 22.7259 14.75 21 14.75C19.2741 14.75 17.875 16.1491 17.875 17.875C17.875 19.6009 19.2741 21 21 21Z" fill="#FF9F00"/>
</svg>
