<svg width="137" height="133" viewBox="0 0 137 133" fill="none" xmlns="http://www.w3.org/2000/svg">
<g filter="url(#filter0_d_2160_30197)">
<g filter="url(#filter1_d_2160_30197)">
<path d="M113.157 62.8078C113.157 87.2989 93.2805 107.156 68.7574 107.156C44.2344 107.156 24.3574 87.2989 24.3574 62.8078C24.3574 38.3168 44.2344 18.46 68.7574 18.46C93.2805 18.46 113.157 38.3168 113.157 62.8078Z" fill="#9C076D" stroke="#FAF305" stroke-width="3"/>
<rect width="57.9065" height="17.7152" rx="8.85759" transform="matrix(0.483209 0.875488 -0.880349 0.474356 52.7188 32.4077)" fill="url(#paint0_linear_2160_30197)"/>
<rect width="57.8901" height="17.7194" rx="8.85972" transform="matrix(0.482823 -0.875734 0.880383 0.474234 17.6797 83.231)" fill="url(#paint1_linear_2160_30197)"/>
<rect width="57.8901" height="17.7194" rx="8.85972" transform="matrix(0.482823 -0.875734 0.880383 0.474234 56.6738 83.1565)" fill="url(#paint2_linear_2160_30197)"/>
<rect width="57.9065" height="17.7152" rx="8.85759" transform="matrix(0.483209 0.875488 -0.880349 0.474356 91.7129 32.3333)" fill="url(#paint3_linear_2160_30197)"/>
<g style="mix-blend-mode:darken">
<rect width="57.9065" height="17.7152" rx="8.85759" transform="matrix(0.483209 0.875488 -0.880349 0.474356 52.7188 32.4077)" fill="url(#paint4_linear_2160_30197)"/>
</g>
<g style="mix-blend-mode:darken">
<rect width="57.8901" height="17.7194" rx="8.85972" transform="matrix(0.482823 -0.875734 0.880383 0.474234 17.6797 83.231)" fill="url(#paint5_linear_2160_30197)"/>
</g>
<g style="mix-blend-mode:darken">
<rect width="57.8901" height="17.7194" rx="8.85972" transform="matrix(0.482823 -0.875734 0.880383 0.474234 56.6738 83.1565)" fill="url(#paint6_linear_2160_30197)"/>
</g>
<g style="mix-blend-mode:darken">
<rect width="57.9065" height="17.7152" rx="8.85759" transform="matrix(0.483209 0.875488 -0.880349 0.474356 91.7129 32.3333)" fill="url(#paint7_linear_2160_30197)"/>
</g>
</g>
</g>
<defs>
<filter id="filter0_d_2160_30197" x="14" y="16.96" width="110" height="99.6958" filterUnits="userSpaceOnUse" color-interpolation-filters="sRGB">
<feFlood flood-opacity="0" result="BackgroundImageFix"/>
<feColorMatrix in="SourceAlpha" type="matrix" values="0 0 0 0 0 0 0 0 0 0 0 0 0 0 0 0 0 0 127 0" result="hardAlpha"/>
<feOffset dy="4"/>
<feGaussianBlur stdDeviation="2"/>
<feComposite in2="hardAlpha" operator="out"/>
<feColorMatrix type="matrix" values="0 0 0 0 0 0 0 0 0 0 0 0 0 0 0 0 0 0 0.25 0"/>
<feBlend mode="normal" in2="BackgroundImageFix" result="effect1_dropShadow_2160_30197"/>
<feBlend mode="normal" in="SourceGraphic" in2="effect1_dropShadow_2160_30197" result="shape"/>
</filter>
<filter id="filter1_d_2160_30197" x="-2" y="0.959961" width="142" height="131.696" filterUnits="userSpaceOnUse" color-interpolation-filters="sRGB">
<feFlood flood-opacity="0" result="BackgroundImageFix"/>
<feColorMatrix in="SourceAlpha" type="matrix" values="0 0 0 0 0 0 0 0 0 0 0 0 0 0 0 0 0 0 127 0" result="hardAlpha"/>
<feOffset dy="4"/>
<feGaussianBlur stdDeviation="10"/>
<feComposite in2="hardAlpha" operator="out"/>
<feColorMatrix type="matrix" values="0 0 0 0 0 0 0 0 0 0 0 0 0 0 0 0 0 0 0.1 0"/>
<feBlend mode="normal" in2="BackgroundImageFix" result="effect1_dropShadow_2160_30197"/>
<feBlend mode="normal" in="SourceGraphic" in2="effect1_dropShadow_2160_30197" result="shape"/>
</filter>
<linearGradient id="paint0_linear_2160_30197" x1="0.132852" y1="7.29159" x2="58.1326" y2="9.30024" gradientUnits="userSpaceOnUse">
<stop stop-color="#E03F37"/>
<stop offset="0.529167" stop-color="#AA7669"/>
<stop offset="1" stop-color="#09A3DE"/>
</linearGradient>
<linearGradient id="paint1_linear_2160_30197" x1="57.8615" y1="6.69065" x2="-1.32387" y2="7.40142" gradientUnits="userSpaceOnUse">
<stop stop-color="#E3423A"/>
<stop offset="0.544792" stop-color="#A77945"/>
<stop offset="1" stop-color="#01A358"/>
</linearGradient>
<linearGradient id="paint2_linear_2160_30197" x1="1.86216" y1="9.63263" x2="57.4403" y2="7.92357" gradientUnits="userSpaceOnUse">
<stop stop-color="#07A1DD"/>
<stop offset="0.534375" stop-color="#AB70B0"/>
<stop offset="1" stop-color="#DD3B94"/>
</linearGradient>
<linearGradient id="paint3_linear_2160_30197" x1="-0.286606" y1="8.87538" x2="58.763" y2="5.63606" gradientUnits="userSpaceOnUse">
<stop stop-color="#DC3C94"/>
<stop offset="1" stop-color="#FDE728"/>
</linearGradient>
<linearGradient id="paint4_linear_2160_30197" x1="0.132852" y1="7.29159" x2="58.1326" y2="9.30024" gradientUnits="userSpaceOnUse">
<stop stop-color="#E03F37"/>
<stop offset="0.529167" stop-color="#AA7669"/>
<stop offset="1" stop-color="#09A3DE"/>
</linearGradient>
<linearGradient id="paint5_linear_2160_30197" x1="57.8615" y1="6.69065" x2="-1.32387" y2="7.40142" gradientUnits="userSpaceOnUse">
<stop stop-color="#E3423A"/>
<stop offset="0.544792" stop-color="#A77945"/>
<stop offset="1" stop-color="#01A358"/>
</linearGradient>
<linearGradient id="paint6_linear_2160_30197" x1="1.86216" y1="9.63263" x2="57.4403" y2="7.92357" gradientUnits="userSpaceOnUse">
<stop stop-color="#07A1DD"/>
<stop offset="0.534375" stop-color="#AB70B0"/>
<stop offset="1" stop-color="#DD3B94"/>
</linearGradient>
<linearGradient id="paint7_linear_2160_30197" x1="-0.286606" y1="8.87538" x2="58.763" y2="5.63606" gradientUnits="userSpaceOnUse">
<stop stop-color="#DC3C94"/>
<stop offset="1" stop-color="#FDE728"/>
</linearGradient>
</defs>
</svg>
